<svg width="14" height="14" viewBox="0 0 14 14" xmlns="http://www.w3.org/2000/svg">
    <g fill="none" fill-rule="evenodd">
        <path fill="#FFF" d="M-30-443h375v667H-30z"/>
        <path d="M6.26.947A.832.832 0 0 1 7 .5c.314.001.6.174.74.447l1.524 2.998c.121.236.352.4.621.438l3.409.48c.31.045.568.255.666.545a.786.786 0 0 1-.209.82L11.284 8.56a.787.787 0 0 0-.236.71l.582 3.294a.792.792 0 0 1-.327.782.849.849 0 0 1-.87.061l-3.048-1.555a.848.848 0 0 0-.769 0l-3.049 1.555a.848.848 0 0 1-.869-.06.792.792 0 0 1-.327-.783l.582-3.295a.784.784 0 0 0-.237-.709L.25 6.228a.782.782 0 0 1-.208-.82c.097-.29.355-.5.665-.545l3.41-.48c.268-.039.499-.202.62-.438L6.26.947z" fill="#F4B400"/>
    </g>
</svg>
