<svg xmlns="http://www.w3.org/2000/svg" xmlns:xlink="http://www.w3.org/1999/xlink" width="52" height="54" viewBox="0 0 52 54">
    <defs>
        <path id="z0o5zhhcja" d="M0 26.07c0 14.359 11.64 26 26 26s26-11.641 26-26c0-14.36-11.64-26-26-26s-26 11.64-26 26"/>
    </defs>
    <g fill="none" fill-rule="evenodd">
        <g>
            <g>
                <g transform="translate(-293 -82) matrix(-1 0 0 1 345 82)">
                    <mask id="i0zbaq6cfb" fill="#fff">
                        <use xlink:href="#z0o5zhhcja"/>
                    </mask>
                    <path fill="#EFEFEF" d="M13.426 39.234c-.103-.338-.425-.564-.674-.814-6.222-6.271-1.152-9.295-1.152-9.295 3.598-2.308 5.987.865 6.866 2.383.246.423.74.461 1.214.337 2.064-.54 2.954-.653 4.335-1.296.439-.205.69-.676.614-1.155l.128-1.872c.019-.275.335-.419.554-.253l1.789 1.346c.27.347.722.494 1.146.38C39.318 26.01 46.68 19.4 49.943 15.919 51.267 19.037 52 22.468 52 26.069c0 14.36-11.64 26-26 26-5.793 0-11.143-1.895-15.465-5.098 2.198-2.15 3.468-5.829 2.89-7.737" mask="url(#i0zbaq6cfb)"/>
                    <path fill="#474747" d="M0 26.07C0 17.186 4.456 9.345 11.254 4.655c1.593-.974 3.37-1.905 5.35-2.783.296-.131.59-.255.883-.375C20.154.573 23.018.07 26 .07c10.758 0 19.989 6.533 23.943 15.849-4.315 9.183-25.772 14.71-27.806 15.354-3.275 1.037-3.275 1.037-3.844.235-1.173-1.652-3.692-2.535-6.446-.513 0 0-3.398 2.915 1.469 7.598.254.244.384.618.486.956.578 1.908-1.069 5.272-3.267 7.422C4.143 42.234 0 34.636 0 26.07M33.087 43.474c-1.63-.073-3.196-.856-4.183-2.227-.255-.353-.167-.838.196-1.085.363-.246.863-.159 1.118.194 1.092 1.517 3.198 2.005 4.901 1.136l.131-.06c.393-.2.878-.054 1.084.328.207.38.057.853-.335 1.052l-.6.306c-.998.344-1.373.399-2.312.356M42.454 35.307c.533-.252.805-.75.458-1.226l-1.948-3.063c-.314-.414-.72-.592-1.143-.266-.43.324-.436.857-.122 1.27l1.257 2.223-.306.123c-.478.23-.873.69-.66 1.165.215.475.715.561 1.196.333l1.268-.56zM46.634 28.61c.165.678-.251 1.362-.93 1.527-.679.166-1.363-.25-1.528-.93-.165-.678.25-1.362.93-1.527.678-.166 1.362.25 1.528.93M33.9 35.04c.165.678-.25 1.362-.93 1.528-.678.165-1.362-.251-1.528-.93-.165-.679.251-1.363.93-1.528.679-.165 1.363.25 1.528.93" mask="url(#i0zbaq6cfb)"/>
                    <path fill="#474747" d="M10.711 33.43s-.169 6.03 7.379 6.983c0 0 2.636.289 4.253 1.04 0 0 6.554 2.305 4.6 8.69 0 0-2.032 5.487-9.282 2.403 0 0-10.571-3.27-15.748-16.67M50.192 11.762l5.894 14.308-4.698 5.634c.602-7.154-3.037-11.68-3.037-11.68s-.889-.888-1.647-.086" mask="url(#i0zbaq6cfb)"/>
                </g>
                <g fill="#474747">
                    <g>
                        <path d="M10.538 4.31s-.17 6.03 7.378 6.983c0 0 2.636.289 4.254 1.04 0 0 7.357 2.456 5.402 8.84 0 0-1.765 5.893-10.085 2.253 0 0-16.001-5.113-17.467-23.293" transform="translate(-293 -82) matrix(-1 0 0 1 345 82) translate(.173 28.384) translate(0 .84)"/>
                    </g>
                </g>
            </g>
        </g>
    </g>
</svg>
