<svg width="24" height="24" viewBox="0 0 24 24" xmlns="http://www.w3.org/2000/svg">
    <g fill="none" fill-rule="evenodd">
        <path d="M13.63 11.776a2.961 2.961 0 0 0-2.001-.751c-.612 0-1.11-.447-1.11-.997s.498-.997 1.11-.997c.379 0 .623.056.99.375a.903.903 0 0 0 .6.216.905.905 0 0 0 .622-.238.713.713 0 0 0 .24-.538c0-.2-.091-.38-.261-.518-.397-.344-.688-.48-1.151-.64l-.18-.06v-.401c0-.413-.385-.749-.86-.749s-.861.336-.861.749v.414l-.179.061c-1.072.37-1.792 1.31-1.792 2.34 0 1.383 1.264 2.508 2.818 2.508.611 0 1.109.447 1.109.997s-.498.997-1.11.997c-.456 0-.94-.25-1.361-.703a.908.908 0 0 0-.665-.268.904.904 0 0 0-.557.184.735.735 0 0 0-.306.521c-.02.19.05.38.196.537.49.517 1.061.892 1.65 1.084l.182.06v.417c0 .413.387.749.862.749.474 0 .86-.336.86-.749v-.414l.18-.061c1.071-.37 1.791-1.31 1.791-2.34 0-.673-.29-1.307-.815-1.785" fill="#EC008C"/>
        <g stroke="#EC008C" stroke-linecap="round" stroke-width="1.6">
            <path d="M3.775 4.367a11.221 11.221 0 0 0-1.52 13.025c3.006 5.42 9.81 7.394 15.198 4.407m2.854-2.262a11.222 11.222 0 0 0 1.462-12.961C18.764 1.155 12-.76 6.57 2.168"/>
            <path stroke-linejoin="round" d="m.931 4.175 3.158-.211.23 3.156M23.166 19.361l-3.073.757-.775-3.069"/>
        </g>
    </g>
</svg>
