<svg xmlns="http://www.w3.org/2000/svg" width="245" height="172" viewBox="0 0 245 172">
    <g fill="none" fill-rule="evenodd">
        <g>
            <g>
                <g>
                    <path fill="#EFEFEF" d="M2.05 99.22h102c1.105 0 2-.896 2-2v-6c0-1.105-.895-2-2-2h-102c-1.104 0-2 .895-2 2v6c0 1.104.896 2 2 2z" transform="translate(-65 -222) matrix(-1 0 0 1 310 222) translate(139)"/>
                    <g>
                        <path fill="#FFD4B3" d="M52.322 50.354c1.342-.039 9.901-.699 11.246-.699-.068.55 1.3 1.09 1.203 1.433-.144.509-.308.998-.289 1.528.1 2.74-.778 5.238-1.667 7.789-.579 1.662-1.622 2.945-2.602 4.255-.78 1.043-2.068 1.717-3.164 2.511-.554.4-1.142.875-1.781 1.016-1.294.284-2.422 1.216-3.84.987-1.753.692-3.584.31-5.378.339-.8.013-1.714.416-2.43-.333-.852.147-1.634-.167-2.425-.382-.768-.21-1.554-.412-2.269-.75-.775-.368-1.56-.796-2.192-1.362-.997-.893-2.255-1.492-2.895-2.81-.452-.931-1.464-1.645-1.734-2.596-.47-1.652-1.469-3.202-1.231-5.03 1.515-.967 3.267-1.323 4.948-1.812 1.424-.414 7.224-1.71 8.728-1.89" transform="translate(-65 -222) matrix(-1 0 0 1 310 222) translate(139) translate(4 .106)"/>
                        <path fill="#FFD4B3" d="M59.548 84.216c-.694-.383-.634-1.242-1.383-1 .076.521-3.584 6.752-3.98 7.332-.64.938-14.54 6.411-15.882 6.883-1.173.41-22.583 8.061-23.495 8.33-1.98.584-4.498.894-6.44 1.548-.508.171-.71.525-.763 1.08-.052.542.28.775.58.878.865.294 2.453.418 3.208.67.155.052.589.093.623.265-.011.197-.477.379-.62.431-.852.318-1.047.419-1.846.847-1.167.627-1.318.815-2.429 1.395-.129.115-1.503.952-1.633 1.067-.907.542-1.62 1.03-2.198 1.633-.771.801-1.463 1.575-1.347 2.653 0 .37.703.169.9.032 1.238-.853 2.374-1.361 3.645-2.133.668-.406 2.08-1.323 2.22-1.387.27-.122.604.028.649.146.094.25.092.48-.047.675-.238.334-.893.644-1.241.863-1.765 1.107-2.12 1.245-4.22 2.451-.443.254-1.11.526-1.387.657-.472.273-.214.809.088.95.774.114 1.439-.124 2.205-.363 1.363-.425 4.435-1.955 4.573-2.015.945-.412 1.281.05 1.326.25.116.527-.273.711-.7.883-.266.107-.559.279-1.17.53-.827.343-.833.317-1.699.699-.991.435-2.024.98-3.056 1.51-.312.16-.75.489-.974.8-.455.828.287 1.144 1.532.787.29-.165.927-.267 1.367-.414.739-.244 3.27-1.051 4.078-1.231 1.009-.226 1.067-.252 1.933-.325.119-.01.366.085.396.235.045.228.019.468-.11.559-.466.327-.9.446-1.423.593-1.123.317-2.044.42-2.662.548-.664.137-1.255.206-1.91.387-.333.092-.423.111-.876.344-.369.253-.215.561.093.591.707.071 1.289.158 2 .201.611.036 1.035.1 1.647.116.57.016 1.354.045 1.915-.019.466-.053.823-.145 1.362-.267.724-.16 1.083-.197 1.846-.324 1.578-.262 1.686-.386 3.622-.662.79-.112 3.655-.734 3.826-.76 2.117-.314 2.608-.542 4.771-.947.778-.146 10.317-3.057 12.106-3.627 1.353-.43 12.908-4.119 14.26-4.553 1.025-.33 2.02-.765 3.057-1.046 1.106-.3 2.184-.749 3.162-1.242 1.072-.54 2.214-.958 3.248-1.58.99-.595 2.057-1.104 2.975-1.752 1.208-.85 5.708-3.943 7.422-5.683 1.715-1.74 5.587-6.105 6.147-6.78.792-.955 2.023-2.732 2.871-3.643.138-.148-.988.307-.931.082.001-.493.178-.893-.538-1.262-2.175-1.12-20.303-6.672-20.693-6.886z" transform="translate(-65 -222) matrix(-1 0 0 1 310 222) translate(139) translate(4 .106) rotate(5 41.826 104.18)"/>
                        <path fill="#FFD4B3" d="M54.425 51.115l-1.423-4.509c-3.353-11.639 1.07-13.418 1.261-25.416.343-21.4-32.615-25.635-31.324-3.904l.833 13.146c0 12.36 9.345 15.944 15.471 14.22l1.245-.566.738 9.754" transform="translate(-65 -222) matrix(-1 0 0 1 310 222) translate(139) translate(4 .106)"/>
                        <path fill="#3A345A" d="M31.221 35.186c-.449.11-.887-.216-.912-.679L30 30.651c-.014-.407.316-.746.736-.756.422-.016.77.312.783.72l.298 2.9.248-.076c.404-.096.82.14.925.536.104.396-.14.797-.548.896l-1.22.315z" transform="translate(-65 -222) matrix(-1 0 0 1 310 222) translate(139) translate(4 .106)"/>
                        <path fill="#FFB597" d="M40.488 44.086l2.013-.556c1.244-.423 2.267-.966 3.52-1.661l1.005-.802c.518-.555.963-.584.714-.001l-.39.948c-.768 1.633-3.03 3.36-5.54 5.588l-.147.126c-.953.645-1.014-.174-1.118-1.343l-.057-2.299z" transform="translate(-65 -222) matrix(-1 0 0 1 310 222) translate(139) translate(4 .106)"/>
                        <path fill="#3A345A" d="M37.133 37.916c-.138-.002-.281-.007-.426-.017-.42-.029-.735-.383-.705-.789.03-.408.392-.714.812-.685.87.063 1.492-.072 1.868-.393.33-.284.518-.768.556-1.439.021-.396.36-.702.765-.699l.034.002c.42.022.742.37.718.777-.06 1.082-.42 1.912-1.068 2.467-.613.526-1.47.786-2.554.776M26.107 31.694c.206.559.826.845 1.385.64.56-.207.846-.827.64-1.387-.205-.559-.826-.845-1.386-.64-.559.207-.845.827-.64 1.387M35.917 29.446c.206.559.827.845 1.386.64.56-.207.845-.827.64-1.387-.207-.56-.827-.845-1.386-.639-.56.205-.846.826-.64 1.386" transform="translate(-65 -222) matrix(-1 0 0 1 310 222) translate(139) translate(4 .106)"/>
                        <path fill="#517399" d="M42.788.719c-.74-.11-2.243-.216-3.466-.216-2.837 0-5.844 1.238-8.325 2.2-.494.192-.98.393-1.448.607-.778.354-1.52.734-2.218 1.13-8.332 4.719-13.644 12.738-5.624 16.89 1.516.786 3.272 1.081 4.992.995l8.269-.411c3.126-.156 9.147-.9 11.482 1.053.205.172.41.352.61.542 4.17 3.91.691.244 1.437 2.22l.45 1.534c.3 1.034.886 1.962 1.688 2.681l.027.025c.84.752 2.005 1.105 3.09.801 1.597-.447 3.022-1.894 3.51-3.745 3.414-12.972.47-17.767-5.798-22.804-1.917-1.54-6.54-3.186-8.676-3.502z" transform="translate(-65 -222) matrix(-1 0 0 1 310 222) translate(139) translate(4 .106)"/>
                        <path fill="#517399" d="M55.653 8.288c4.242 6.573 8.006 10.396 12.626 11.85 3.67 1.154 5.252 1.594 8.152 2.493 1.364.422 1.725 1.962 1.05 3.22-2.857 5.32-5.687 9.574-10.441 14.07-2.483 2.348-8.98 5.439-13.45 5.139-.3-.021-.62-.053-.859-.236-.257-.196-.37-.527-.46-.837-.596-2.033-2.11-9.241-2.103-11.36" transform="translate(-65 -222) matrix(-1 0 0 1 310 222) translate(139) translate(4 .106)"/>
                        <path fill="#FFD4B3" d="M51.433 32.723c-2.445-.011-4.508-2.24-4.61-4.977-.1-2.737 1.8-4.947 4.246-4.935 2.445.012 4.509 2.24 4.61 4.977.045 1.228-.313 2.35-.941 3.212-.773 1.06-1.956 1.73-3.305 1.723" transform="translate(-65 -222) matrix(-1 0 0 1 310 222) translate(139) translate(4 .106)"/>
                        <path fill="#D08283" d="M56.632 89.722c9.596 3.924 19.068 7.82 28.665 11.745 3.329-6.842 6.699-13.81 7.88-21.325 1.18-7.517-.134-15.8-5.238-21.44-6.349-7.02-14.914-8.673-24.372-9.048-.455 6.133-.911 13.555-5.94 17.094-3.053 2.149-7.742 2.509-11.474 2.429-2.34-.05-4.78-.276-6.771-1.506-3.947-2.438-5.198-8.04-5.593-12.662-9.208 2.41-10.368 4.128-13.768 9.541-2.643 4.207-3.28 9.652-3.973 14.57-.05.356-.964 10-.543 9.994 6.949-.1 11.503.085 20.79 0 7.933-.072 20.53 0 20.53 0s-.147.523-.193.608z" transform="translate(-65 -222) matrix(-1 0 0 1 310 222) translate(139) translate(4 .106)"/>
                        <path fill="#963637" d="M49.755 89.115L64.776 74.863 56.824 89.115z" transform="translate(-65 -222) matrix(-1 0 0 1 310 222) translate(139) translate(4 .106)"/>
                        <path fill="#FFD4B3" d="M6.406 83.35c.109-.887.404-1.543 1.101-2.055.592-.435 1.808-.32 2.429.202.326.272.528.644 1.14.107.673-.593 1.662-1.03 2.643-.327.508.364.961-.004 1.348-.217.808-.446 1.51-.233 2.199.193.273.169.659.662.694.633.393-.314.728-.702 1.079-1.07 0 0 .474-.242.825-.037 1.121.391 2.102.974 2.736 2.026 1.345 2.62.785 6.637.303 7.508-.149.267-.233.57-.384.838-.353.63-1.065 1.304-1.484 1.419-.728.208-1.525.377-1.833-.68-.027-.09-.54-.14-.765-.05-.367.148-.671.445-1.023.641-.207.117-.49.28-.676.221-.58-.182-1.159-.694-1.684-.63-.473.058-.863.53-1.524.578-.771.054-1.243-.405-1.862-.576-.4-.11-.59-.182-1.04.16-1.063.805-2.463.75-2.97.015-.49-.713-.881-1.541-1.11-2.376-.29-1.05-.53-2.131-.535-3.242 0-.14.276-2.32.393-3.281" transform="translate(-65 -222) matrix(-1 0 0 1 310 222) translate(139) translate(4 .106)"/>
                    </g>
                </g>
                <g>
                    <path fill="#FF9B73" d="M91.981 119.676c.275-1.454 3.086-9.515 3.703-10.86.75-1.63.956-2.3 1.475-4.007.347-1.14.488-1.536.693-2.658.225-1.236.263-1.77.076-3.21-.153-1.193-.309-1.559-.865-3.022-.546-1.44-4.596-10.111-5.516-12.47-.866-2.22-2.987-6.171-3.328-7.019-.484-1.198-3.136-2.79-3.551-4.018-.068-.2-.885.572-1.062.41-.451-.246-.731-.606-1.423-.132-2.104 1.44-11.556 15.447-11.944 15.697-.695.448-1.452-.032-1.602.774.516.188 5.955 6.675 6.29 7.325.543 1.051-6.758 18.507-6.99 19.97" transform="translate(-65 -222) matrix(-1 0 0 1 310 222) translate(0 48)"/>
                    <path fill="#86A9AF" d="M55.257 60.785c2.389-1.898 5.984-3.003 9.017-2.674 6.738.733 10.03 3.795 14.124 7.94 6.75 6.832 11.224 11.657 17.175 19.196.482.61.984 1.287.974 2.064-.006.54-.262 1.04-.518 1.516-5.013 9.336-9.562 10.93-18 17.342-8.69-10.403-19.71-21.845-27.846-33.043-3.064-4.218-1.92-6.783 5.074-12.341" transform="translate(-65 -222) matrix(-1 0 0 1 310 222) translate(0 48)"/>
                    <path fill="#A1D0C5" d="M85.069 122.634c.434-9.618.434-9.618-2.214-27.716-3.346-22.869-9.74-30.01-18.543-34.186-7.489-3.554-22.005-5.308-29.678-1.177-7.528 4.053-16.715 14.747-18.51 22.68-5.056 22.358-4.638 16.632-6.43 41.481 30.39 0 45.89-1.082 75.375-1.082z" transform="translate(-65 -222) matrix(-1 0 0 1 310 222) translate(0 48)"/>
                    <path fill="#FFB597" d="M58.771 59.785l3.321-18.273c1.224-.64 9.863.083 12.761-2.85 3.772-3.816 2.481-24.069-2.255-27.438-4.058-3.48-12.008 1.408-19.885 2.928-3.447.664-1.75 7.97-4.618 18.306-2.065 7.44-4.79 18.778-6.587 24.753-.772 2.565-9.738 2.846-9.63 3.244 2.229 8.496 6.49 14.775 20.363 14.386 8.207-.23 13.601-4.638 17.382-11.231-.737-.118-8.282-1.21-9.075-1.267-1.734-.124-1.974-.824-1.777-2.558" transform="translate(-65 -222) matrix(-1 0 0 1 310 222) translate(0 48)"/>
                    <path fill="#3A345A" d="M74.771 25.412c.106.027.218.033.332.015.43-.07.601-.472.524-.892l-.61-4.22c-.078-.42-.375-.7-.806-.63-.43.07-.586.465-.508.886l.609 4.22c.058.31.167.546.459.621M68.08 20.146c.06.618.609 1.07 1.227 1.01.618-.06 1.07-.61 1.01-1.228-.06-.619-.61-1.071-1.228-1.011-.618.06-1.07.61-1.01 1.229M70.818 31.472c-1.09-.75-1.83-1.957-1.922-3.323-.023-.351.245-.648.6-.661.354-.013.662.26.685.611.101 1.511 1.34 2.748 2.882 2.88l.117.015c.354.031.626.34.604.69-.021.35-.326.61-.681.579l-.544-.046c-.832-.191-1.115-.314-1.741-.745" transform="translate(-65 -222) matrix(-1 0 0 1 310 222) translate(0 48)"/>
                    <path fill="#394877" d="M61.41 18.393c.476-1.268 1.373-2.133 2.575-2.759 6.752-3.512 11.611-6.163 16.949-11.015.34-.31 1.86-1.45 1.86-3.143C82.793.032 81.028.01 78.432 0c-5.194-.02-17.465 1.603-22.794 4.402-6.038 3.173-8.38 5.343-12.062 9.448-2.415 2.692-3.861 5.207-4.247 8.804-.556 5.178-.175 6.433 1.235 9.033 4.745 8.75 12.067 2.662 13.927.09 2.74-3.794 5.544-9.73 6.918-13.385" transform="translate(-65 -222) matrix(-1 0 0 1 310 222) translate(0 48)"/>
                    <path fill="#FF9B73" d="M57.885 40.744c2.866.6 4.987.572 8.298.339 1.063-.075-2.693 1.6-3.725 1.898-2.65.764-3.105 1.189-6.57 1.059-1.069-.04.944-3.515 1.997-3.296" transform="translate(-65 -222) matrix(-1 0 0 1 310 222) translate(0 48)"/>
                    <path fill="#FFB597" d="M119.216 55.351c.765-.158 2.722-1.524 3.416-1.856.864-.412 1.459-.882 2.256-1.38.685-.427 1.189-.31 1.787-.053.115.048.246.17.285.257.384.856.246 1.731-.485 2.412-.55.512-.98.896-1.54 1.47-.042.044-.191.258-.2.328-.022.158.153.282.25.293.254.028.516-.025.774-.03 2.345-.05 4.677-.476 7.04-.133.707.103 1.071.26 1.643.559.768.43.75 1.05-.099 1.485-.51.261-1.174.301-1.744.445-.31.122-1.888.175-2.808.324-.746.09-1.05.134-1.303.643-.068.137-.028.488.022.5.113.348 1.097.555 2.073.589.325.012.672.076 1.01.114 1.454.164 3.44.429 4.381.801.193.076.444.49.455.698.057.363-.185.88-.944.85-.628-.06-.972-.04-1.403-.06-.515-.02-1.636-.036-2.392-.016-1.137-.06-1.804-.087-2.698-.117-.34-.011-.58.479-.374.76.207.282.306.446.888.46 1.632.054 1.986.06 3.61.038.19-.002.838-.044 1.516-.055.555-.086.839-.024 1.177-.052.271.012.539.035.652.345.18.49.058 1.006-.56 1.21-.42.113-.855.165-1.256.239-.421.08-.794.127-1.216.21-.92.183-1.771.406-2.694.579-.13.025-.312.097-.443.134-.451.128-.617.357-.502.85.058.248.638.272 1.331.191.321-.048.913-.155 1.121-.155 1.308-.253 1.805-.44 3.267-.753.369-.08.703-.18.937-.116.557.156.384.693.185 1.231-.113.384-.382.658-.749.824-.479.216-.715.309-1.169.534-1.346.507-2.3 1.045-3.707 1.525-.795.186-1.452.478-2.343.73-1.231.422-3.264.974-3.884 1.184-1.235.404-4.456 1.126-4.83 1.213-.77.18-1.517.42-2.325.503-.718.074-2.915.633-3.274.772-.75.291-10.716 1.616-11.343 1.734-.779.147-33.804 4.559-34.681 4.61-.234.061-.605-.119-.604.348l-.622.037-.33-.293c-.066-.333-.048-.647-.252-.993-2.226-3.793-2.554-20.467-2.933-21.615" transform="translate(-65 -222) matrix(-1 0 0 1 310 222) translate(0 48) rotate(5 100.203 67.218)"/>
                    <path fill="#EFEFEF" d="M2 124h116c1.105 0 2-.895 2-2v-6c0-1.105-.895-2-2-2H2c-1.105 0-2 .895-2 2v6c0 1.105.895 2 2 2z" transform="translate(-65 -222) matrix(-1 0 0 1 310 222) translate(0 48)"/>
                    <path fill="#86A9AF" d="M14.691 80.274s-2.15 10.788-3.492 25.186l46.896-16.916-43.404-8.27z" transform="translate(-65 -222) matrix(-1 0 0 1 310 222) translate(0 48)"/>
                    <path fill="#A1D0C5" d="M16.032 66.019c6.028-6.09 10.34-6.936 17.663-7.723 12.07-1.3 19.366-1.928 31.507-1.883.982.004 2.048.04 2.809.662.53.43.823 1.08 1.093 1.706 5.289 12.308 3.285 18.062 2.987 31.455-17.13.41-33.276 2.306-50.757 1.54-6.585-.289-9.76-3.44-9.754-14.733.002-3.857 1.739-8.284 4.452-11.024z" transform="translate(-65 -222) matrix(-1 0 0 1 310 222) translate(0 48)"/>
                    <path fill="#FFB597" d="M55.064 29.08c-2.438-.74-3.835-3.58-3.12-6.343.715-2.764 3.27-4.404 5.709-3.664 2.438.74 3.835 3.58 3.12 6.343-.321 1.24-1.012 2.254-1.897 2.928-1.088.828-2.468 1.143-3.812.736" transform="translate(-65 -222) matrix(-1 0 0 1 310 222) translate(0 48)"/>
                </g>
            </g>
        </g>
    </g>
</svg>
